<svg width="17" height="17" viewBox="0 0 17 17" fill="none" xmlns="http://www.w3.org/2000/svg">
<path d="M7.5625 1.9375V6.3125C7.5625 6.64402 7.4308 6.96196 7.19638 7.19638C6.96196 7.4308 6.64402 7.5625 6.3125 7.5625H1.9375C1.60598 7.5625 1.28804 7.4308 1.05362 7.19638C0.819196 6.96196 0.6875 6.64402 0.6875 6.3125V1.9375C0.6875 1.60598 0.819196 1.28804 1.05362 1.05362C1.28804 0.819196 1.60598 0.6875 1.9375 0.6875H6.3125C6.64402 0.6875 6.96196 0.819196 7.19638 1.05362C7.4308 1.28804 7.5625 1.60598 7.5625 1.9375ZM15.0625 0.6875H10.6875C10.356 0.6875 10.038 0.819196 9.80362 1.05362C9.5692 1.28804 9.4375 1.60598 9.4375 1.9375V6.3125C9.4375 6.64402 9.5692 6.96196 9.80362 7.19638C10.038 7.4308 10.356 7.5625 10.6875 7.5625H15.0625C15.394 7.5625 15.712 7.4308 15.9464 7.19638C16.1808 6.96196 16.3125 6.64402 16.3125 6.3125V1.9375C16.3125 1.60598 16.1808 1.28804 15.9464 1.05362C15.712 0.819196 15.394 0.6875 15.0625 0.6875ZM6.3125 9.4375H1.9375C1.60598 9.4375 1.28804 9.5692 1.05362 9.80362C0.819196 10.038 0.6875 10.356 0.6875 10.6875V15.0625C0.6875 15.394 0.819196 15.712 1.05362 15.9464C1.28804 16.1808 1.60598 16.3125 1.9375 16.3125H6.3125C6.64402 16.3125 6.96196 16.1808 7.19638 15.9464C7.4308 15.712 7.5625 15.394 7.5625 15.0625V10.6875C7.5625 10.356 7.4308 10.038 7.19638 9.80362C6.96196 9.5692 6.64402 9.4375 6.3125 9.4375ZM12.875 9.4375C12.1951 9.4375 11.5305 9.63911 10.9652 10.0168C10.3999 10.3945 9.95934 10.9314 9.69916 11.5595C9.43899 12.1876 9.37091 12.8788 9.50355 13.5456C9.63619 14.2124 9.96358 14.8249 10.4443 15.3057C10.9251 15.7864 11.5376 16.1138 12.2044 16.2464C12.8712 16.3791 13.5624 16.311 14.1905 16.0508C14.8186 15.7907 15.3555 15.3501 15.7332 14.7848C16.1109 14.2195 16.3125 13.5549 16.3125 12.875C16.3125 11.9633 15.9503 11.089 15.3057 10.4443C14.661 9.79966 13.7867 9.4375 12.875 9.4375Z" fill="white"/>
</svg>
