<svg width="22" height="22" viewBox="0 0 22 22" fill="none" xmlns="http://www.w3.org/2000/svg">
<path d="M11 0C4.93436 0 0 4.93436 0 11C0 17.0656 4.93436 22 11 22C17.0656 22 22 17.0656 22 11C22 4.93436 17.0656 0 11 0Z" fill="#7D7D7D"/>
<path d="M15.0508 13.7545C15.4092 14.1131 15.4092 14.6923 15.0508 15.0508C14.9658 15.1361 14.8647 15.2037 14.7535 15.2498C14.6423 15.2959 14.523 15.3195 14.4026 15.3194C14.168 15.3194 13.9333 15.2296 13.7545 15.0508L11 12.2961L8.24551 15.0509C8.16049 15.1361 8.05947 15.2037 7.94825 15.2498C7.83703 15.2959 7.71781 15.3195 7.59742 15.3194C7.47701 15.3195 7.35777 15.2959 7.24653 15.2498C7.1353 15.2037 7.03427 15.1361 6.94923 15.0509C6.59087 14.6923 6.59087 14.1131 6.94923 13.7545L9.70392 11L6.94919 8.24551C6.59083 7.88698 6.59083 7.30772 6.94919 6.94923C7.30772 6.59087 7.88698 6.59087 8.24551 6.94923L11 9.70392L13.7545 6.94919C14.1131 6.59083 14.6923 6.59083 15.0508 6.94919C15.4092 7.30772 15.4092 7.88698 15.0508 8.24551L12.2961 11L15.0508 13.7545Z" fill="#FAFAFA"/>
</svg>
