<svg width="20" height="12" viewBox="0 0 20 12" fill="none" xmlns="http://www.w3.org/2000/svg">
<path fill-rule="evenodd" clip-rule="evenodd" d="M18.8037 0H17.6371C16.9927 0 16.4704 0.503675 16.4704 1.12499V10.8749C16.4704 11.4962 16.9927 11.9999 17.6371 11.9999H18.8037C19.4481 11.9999 19.9704 11.4962 19.9704 10.8749V1.12499C19.9704 0.503675 19.4481 0 18.8037 0ZM12.1469 2.62511H13.3136C13.9579 2.62511 14.4802 3.12878 14.4802 3.7501V10.875C14.4802 11.4963 13.9579 12 13.3136 12H12.1469C11.5026 12 10.9803 11.4963 10.9803 10.875V3.7501C10.9803 3.12878 11.5026 2.62511 12.1469 2.62511ZM7.82345 5.24987H6.6568C6.01247 5.24987 5.49014 5.75354 5.49014 6.37486V10.8748C5.49014 11.4961 6.01247 11.9998 6.6568 11.9998H7.82345C8.46778 11.9998 8.9901 11.4961 8.9901 10.8748V6.37486C8.9901 5.75354 8.46778 5.24987 7.82345 5.24987ZM2.33331 7.49981H1.16665C0.522329 7.49981 0 8.00348 0 8.6248V10.8748C0 11.4961 0.522329 11.9998 1.16665 11.9998H2.33331C2.97764 11.9998 3.49996 11.4961 3.49996 10.8748V8.6248C3.49996 8.00348 2.97764 7.49981 2.33331 7.49981Z" fill="black"/>
</svg>
