<svg width="20" height="20" viewBox="0 0 20 20" fill="none" xmlns="http://www.w3.org/2000/svg">
<g clip-path="url(#clip0_2409_1850)">
<path d="M15.2135 9.27474L6.21964 0.29487C5.82499 -0.0982971 5.1856 -0.0982971 4.78996 0.29487C4.39531 0.688036 4.39531 1.32664 4.78996 1.71981L13.0705 9.98717L4.79096 18.2545C4.39631 18.6477 4.39631 19.2863 4.79096 19.6805C5.1856 20.0736 5.82599 20.0736 6.22064 19.6805L15.2145 10.7007C15.6031 10.3116 15.6031 9.66293 15.2135 9.27474Z" fill="#109D10"/>
<g clip-path="url(#clip1_2409_1850)">
<path d="M15.2135 9.27474L6.21964 0.29487C5.82499 -0.0982971 5.1856 -0.0982971 4.78996 0.29487C4.39531 0.688036 4.39531 1.32664 4.78996 1.71981L13.0705 9.98717L4.79096 18.2545C4.39631 18.6477 4.39631 19.2863 4.79096 19.6805C5.1856 20.0736 5.82599 20.0736 6.22064 19.6805L15.2145 10.7007C15.6031 10.3116 15.6031 9.66293 15.2135 9.27474Z" fill="#109D10"/>
</g>
</g>
<defs>
<clipPath id="clip0_2409_1850">
<rect width="20" height="19.9754" fill="white" transform="matrix(-1 0 0 -1 20 19.9754)"/>
</clipPath>
<clipPath id="clip1_2409_1850">
<rect width="20" height="19.9754" fill="white" transform="matrix(-1 0 0 -1 20 19.9754)"/>
</clipPath>
</defs>
</svg>
