<svg width="24" height="24" viewBox="0 0 24 24" fill="none" xmlns="http://www.w3.org/2000/svg">
<path d="M7.93061 15.6043H7.93162C7.93246 15.6043 7.9333 15.6042 7.9341 15.6042H19.3601C19.497 15.6041 19.6302 15.5595 19.7395 15.477C19.8489 15.3946 19.9284 15.2788 19.966 15.1471L22.4868 6.32418C22.5136 6.23041 22.5183 6.1317 22.5005 6.03581C22.4826 5.93993 22.4428 5.84949 22.3841 5.77161C22.3253 5.69373 22.2493 5.63054 22.162 5.58703C22.0747 5.54351 21.9785 5.52085 21.8809 5.52083H6.47722L6.02675 3.4935C5.99562 3.35352 5.91769 3.22834 5.80583 3.13862C5.69397 3.0489 5.55486 3 5.41146 3H1.63021C1.28212 3 1 3.28212 1 3.63021C1 3.97829 1.28212 4.26042 1.63021 4.26042H4.90599C4.98573 4.61964 7.06181 13.9622 7.18129 14.4996C6.51155 14.7908 6.04167 15.4586 6.04167 16.2344C6.04167 17.2768 6.88984 18.125 7.93229 18.125H19.3601C19.7082 18.125 19.9903 17.8429 19.9903 17.4948C19.9903 17.1467 19.7082 16.8646 19.3601 16.8646H7.93229C7.58484 16.8646 7.30208 16.5818 7.30208 16.2344C7.30208 15.8874 7.58387 15.6051 7.93061 15.6043ZM21.0454 6.78125L18.8846 14.3438H8.4378L6.75725 6.78125H21.0454ZM7.30208 20.0156C7.30208 21.0581 8.15026 21.9062 9.19271 21.9062C10.2352 21.9062 11.0833 21.0581 11.0833 20.0156C11.0833 18.9732 10.2352 18.125 9.19271 18.125C8.15026 18.125 7.30208 18.9732 7.30208 20.0156ZM9.19271 19.3854C9.54016 19.3854 9.82292 19.6682 9.82292 20.0156C9.82292 20.3631 9.54016 20.6458 9.19271 20.6458C8.84525 20.6458 8.5625 20.3631 8.5625 20.0156C8.5625 19.6682 8.84525 19.3854 9.19271 19.3854ZM16.209 20.0156C16.209 21.0581 17.0572 21.9062 18.0997 21.9062C19.1421 21.9062 19.9903 21.0581 19.9903 20.0156C19.9903 18.9732 19.1421 18.125 18.0997 18.125C17.0572 18.125 16.209 18.9732 16.209 20.0156ZM18.0997 19.3854C18.4471 19.3854 18.7299 19.6682 18.7299 20.0156C18.7299 20.3631 18.4471 20.6458 18.0997 20.6458C17.7522 20.6458 17.4694 20.3631 17.4694 20.0156C17.4694 19.6682 17.7522 19.3854 18.0997 19.3854Z" fill="black"/>
</svg>
