<svg width="136" height="14" viewBox="0 0 136 14" fill="none" xmlns="http://www.w3.org/2000/svg">
<path d="M136 6.97966C136 8.1279 135.877 9.12285 135.63 9.9645C135.383 10.8061 135.04 11.5035 134.601 12.0566C134.167 12.6097 133.65 13.0215 133.048 13.292C132.452 13.5625 131.805 13.6978 131.106 13.6978C130.408 13.6978 129.761 13.5625 129.165 13.292C128.575 13.0215 128.064 12.6097 127.63 12.0566C127.197 11.5035 126.857 10.8061 126.61 9.9645C126.369 9.12285 126.249 8.1279 126.249 6.97966C126.249 5.83141 126.369 4.83646 126.61 3.99481C126.857 3.15316 127.197 2.45579 127.63 1.90271C128.064 1.34963 128.575 0.940828 129.165 0.676309C129.761 0.40578 130.408 0.270515 131.106 0.270515C131.805 0.270515 132.452 0.40578 133.048 0.676309C133.65 0.940828 134.167 1.34963 134.601 1.90271C135.04 2.45579 135.383 3.15316 135.63 3.99481C135.877 4.83646 136 5.83141 136 6.97966ZM133.111 6.97966C133.111 6.07188 133.054 5.32942 132.939 4.75229C132.825 4.16915 132.671 3.71226 132.479 3.38161C132.292 3.05096 132.079 2.82552 131.838 2.70528C131.597 2.57904 131.353 2.51591 131.106 2.51591C130.86 2.51591 130.616 2.57904 130.375 2.70528C130.14 2.82552 129.93 3.05096 129.743 3.38161C129.563 3.71226 129.415 4.16915 129.301 4.75229C129.192 5.32942 129.138 6.07188 129.138 6.97966C129.138 7.89345 129.192 8.6389 129.301 9.21603C129.415 9.79316 129.563 10.2501 129.743 10.5867C129.93 10.9174 130.14 11.1458 130.375 11.2721C130.616 11.3923 130.86 11.4524 131.106 11.4524C131.353 11.4524 131.597 11.3923 131.838 11.2721C132.079 11.1458 132.292 10.9174 132.479 10.5867C132.671 10.2501 132.825 9.79316 132.939 9.21603C133.054 8.6389 133.111 7.89345 133.111 6.97966Z" fill="#12121D"/>
<path d="M125.525 6.97966C125.525 8.1279 125.402 9.12285 125.155 9.9645C124.908 10.8061 124.565 11.5035 124.126 12.0566C123.692 12.6097 123.175 13.0215 122.573 13.292C121.977 13.5625 121.33 13.6978 120.632 13.6978C119.933 13.6978 119.286 13.5625 118.69 13.292C118.101 13.0215 117.589 12.6097 117.156 12.0566C116.722 11.5035 116.382 10.8061 116.135 9.9645C115.895 9.12285 115.774 8.1279 115.774 6.97966C115.774 5.83141 115.895 4.83646 116.135 3.99481C116.382 3.15316 116.722 2.45579 117.156 1.90271C117.589 1.34963 118.101 0.940828 118.69 0.676309C119.286 0.40578 119.933 0.270515 120.632 0.270515C121.33 0.270515 121.977 0.40578 122.573 0.676309C123.175 0.940828 123.692 1.34963 124.126 1.90271C124.565 2.45579 124.908 3.15316 125.155 3.99481C125.402 4.83646 125.525 5.83141 125.525 6.97966ZM122.636 6.97966C122.636 6.07188 122.579 5.32942 122.465 4.75229C122.35 4.16915 122.197 3.71226 122.004 3.38161C121.817 3.05096 121.604 2.82552 121.363 2.70528C121.122 2.57904 120.878 2.51591 120.632 2.51591C120.385 2.51591 120.141 2.57904 119.9 2.70528C119.666 2.82552 119.455 3.05096 119.268 3.38161C119.088 3.71226 118.94 4.16915 118.826 4.75229C118.718 5.32942 118.663 6.07188 118.663 6.97966C118.663 7.89345 118.718 8.6389 118.826 9.21603C118.94 9.79316 119.088 10.2501 119.268 10.5867C119.455 10.9174 119.666 11.1458 119.9 11.2721C120.141 11.3923 120.385 11.4524 120.632 11.4524C120.878 11.4524 121.122 11.3923 121.363 11.2721C121.604 11.1458 121.817 10.9174 122.004 10.5867C122.197 10.2501 122.35 9.79316 122.465 9.21603C122.579 8.6389 122.636 7.89345 122.636 6.97966Z" fill="#12121D"/>
<path d="M111.662 12.1378C111.662 11.9214 111.701 11.72 111.779 11.5336C111.863 11.3472 111.974 11.1849 112.113 11.0466C112.257 10.9084 112.426 10.8002 112.619 10.722C112.811 10.6378 113.022 10.5958 113.251 10.5958C113.473 10.5958 113.681 10.6378 113.874 10.722C114.066 10.8002 114.235 10.9084 114.379 11.0466C114.524 11.1849 114.635 11.3472 114.713 11.5336C114.797 11.72 114.84 11.9214 114.84 12.1378C114.84 12.3542 114.797 12.5586 114.713 12.751C114.635 12.9373 114.524 13.0997 114.379 13.2379C114.235 13.3762 114.066 13.4844 113.874 13.5626C113.681 13.6407 113.473 13.6798 113.251 13.6798C113.022 13.6798 112.811 13.6407 112.619 13.5626C112.426 13.4844 112.257 13.3762 112.113 13.2379C111.974 13.0997 111.863 12.9373 111.779 12.751C111.701 12.5586 111.662 12.3542 111.662 12.1378Z" fill="#12121D"/>
<path d="M106.893 8.44951V5.0228C106.893 4.81239 106.899 4.58694 106.911 4.34647C106.929 4.09999 106.953 3.84449 106.983 3.57997L103.507 8.44951H106.893ZM110.685 8.44951V10.0186C110.685 10.1569 110.637 10.2771 110.54 10.3793C110.45 10.4815 110.318 10.5326 110.143 10.5326H109.331V13.5535H106.893V10.5326H101.602C101.427 10.5326 101.268 10.4785 101.123 10.3703C100.985 10.2621 100.898 10.1268 100.862 9.96447L100.573 8.58477L106.658 0.414773H109.331V8.44951H110.685Z" fill="#12121D"/>
<path d="M99.6322 11.5336V13.5536H92.1383V11.5336H94.6664V4.90565C94.6664 4.73732 94.6694 4.56899 94.6754 4.40066C94.6814 4.22632 94.6904 4.05197 94.7025 3.87763L93.2037 5.12207C93.0713 5.22427 92.9389 5.28739 92.8064 5.31144C92.68 5.32948 92.5597 5.32948 92.4453 5.31144C92.3309 5.28739 92.2286 5.24832 92.1383 5.19421C92.048 5.13409 91.9818 5.07398 91.9397 5.01386L91.0549 3.84156L95.1539 0.405833H97.4653V11.5336H99.6322Z" fill="#12121D"/>
<path d="M69.4504 12.1378C69.4504 11.9214 69.4895 11.72 69.5678 11.5336C69.6521 11.3473 69.7634 11.185 69.9019 11.0467C70.0463 10.9084 70.2148 10.8002 70.4075 10.722C70.6001 10.6379 70.8108 10.5958 71.0395 10.5958C71.2622 10.5958 71.4698 10.6379 71.6625 10.722C71.8551 10.8002 72.0236 10.9084 72.1681 11.0467C72.3125 11.185 72.4239 11.3473 72.5021 11.5336C72.5864 11.72 72.6285 11.9214 72.6285 12.1378C72.6285 12.3542 72.5864 12.5586 72.5021 12.751C72.4239 12.9374 72.3125 13.0997 72.1681 13.238C72.0236 13.3762 71.8551 13.4845 71.6625 13.5626C71.4698 13.6408 71.2622 13.6798 71.0395 13.6798C70.8108 13.6798 70.6001 13.6408 70.4075 13.5626C70.2148 13.4845 70.0463 13.3762 69.9019 13.238C69.7634 13.0997 69.6521 12.9374 69.5678 12.751C69.4895 12.5586 69.4504 12.3542 69.4504 12.1378ZM69.4504 5.97876C69.4504 5.76233 69.4895 5.56094 69.5678 5.37457C69.6521 5.18821 69.7634 5.02589 69.9019 4.88762C70.0463 4.74935 70.2148 4.64114 70.4075 4.56298C70.6001 4.47882 70.8108 4.43674 71.0395 4.43674C71.2622 4.43674 71.4698 4.47882 71.6625 4.56298C71.8551 4.64114 72.0236 4.74935 72.1681 4.88762C72.3125 5.02589 72.4239 5.18821 72.5021 5.37457C72.5864 5.56094 72.6285 5.76233 72.6285 5.97876C72.6285 6.19518 72.5864 6.39958 72.5021 6.59196C72.4239 6.77832 72.3125 6.94064 72.1681 7.07891C72.0236 7.21718 71.8551 7.32539 71.6625 7.40355C71.4698 7.4817 71.2622 7.52078 71.0395 7.52078C70.8108 7.52078 70.6001 7.4817 70.4075 7.40355C70.2148 7.32539 70.0463 7.21718 69.9019 7.07891C69.7634 6.94064 69.6521 6.77832 69.5678 6.59196C69.4895 6.39958 69.4504 6.19518 69.4504 5.97876Z" fill="#12121D"/>
<path d="M67.7031 0.0541275V13.5536H64.9042V0.0541275H67.7031Z" fill="#12121D"/>
<path d="M60.3885 9.74806C59.8287 9.7721 59.3683 9.8202 59.0071 9.89234C58.646 9.96448 58.36 10.0547 58.1494 10.1629C57.9387 10.2711 57.7912 10.3943 57.707 10.5326C57.6287 10.6709 57.5896 10.8212 57.5896 10.9835C57.5896 11.3021 57.6769 11.5275 57.8514 11.6598C58.026 11.786 58.2818 11.8492 58.6189 11.8492C58.98 11.8492 59.296 11.786 59.5669 11.6598C59.8377 11.5336 60.1116 11.3292 60.3885 11.0466V9.74806ZM55.3505 5.50074C55.9163 5.00176 56.5423 4.63204 57.2284 4.39157C57.9206 4.14508 58.661 4.02184 59.4495 4.02184C60.0153 4.02184 60.5239 4.11502 60.9754 4.30139C61.4328 4.48174 61.8181 4.73724 62.1311 5.06789C62.4501 5.39253 62.6938 5.78029 62.8624 6.23117C63.0309 6.68205 63.1152 7.17502 63.1152 7.71007V13.5535H61.8331C61.5683 13.5535 61.3666 13.5174 61.2282 13.4453C61.0958 13.3732 60.9844 13.2229 60.8941 12.9944L60.6955 12.4804C60.4607 12.6788 60.235 12.8531 60.0183 13.0034C59.8016 13.1537 59.5759 13.283 59.3412 13.3912C59.1124 13.4934 58.8657 13.5685 58.6008 13.6166C58.342 13.6707 58.0531 13.6978 57.734 13.6978C57.3067 13.6978 56.9184 13.6437 56.5693 13.5355C56.2202 13.4213 55.9223 13.2559 55.6755 13.0395C55.4347 12.8231 55.2481 12.5556 55.1157 12.2369C54.9833 11.9123 54.9171 11.5396 54.9171 11.1187C54.9171 10.7821 55.0013 10.4424 55.1699 10.0997C55.3384 9.75106 55.6303 9.43544 56.0457 9.15289C56.461 8.86433 57.0208 8.62385 57.725 8.43148C58.4293 8.2391 59.3171 8.13089 60.3885 8.10684V7.71007C60.3885 7.16299 60.2741 6.76922 60.0454 6.52875C59.8227 6.28227 59.5037 6.15903 59.0884 6.15903C58.7573 6.15903 58.4864 6.1951 58.2758 6.26724C58.0651 6.33938 57.8755 6.42054 57.707 6.51072C57.5444 6.60089 57.3849 6.68205 57.2284 6.75419C57.0719 6.82633 56.8853 6.8624 56.6687 6.8624C56.476 6.8624 56.3135 6.81431 56.1811 6.71812C56.0487 6.62193 55.9403 6.50771 55.8561 6.37545L55.3505 5.50074Z" fill="#12121D"/>
<path d="M51.9775 13.6978C51.5321 13.6978 51.1378 13.6347 50.7947 13.5084C50.4576 13.3762 50.1717 13.1928 49.937 12.9584C49.7083 12.7179 49.5337 12.4293 49.4133 12.0927C49.2929 11.756 49.2327 11.3803 49.2327 10.9655V6.13199H48.4382C48.2938 6.13199 48.1704 6.0869 48.068 5.99672C47.9657 5.90053 47.9146 5.76226 47.9146 5.58191V4.49077L49.4043 4.20221L49.9551 1.92074C50.0273 1.63218 50.2319 1.48789 50.569 1.48789H52.0317V4.22024H54.3521V6.13199H52.0317V10.7761C52.0317 10.9925 52.0828 11.1729 52.1852 11.3171C52.2935 11.4554 52.447 11.5246 52.6456 11.5246C52.7479 11.5246 52.8322 11.5155 52.8984 11.4975C52.9707 11.4734 53.0308 11.4494 53.079 11.4254C53.1332 11.3953 53.1813 11.3713 53.2235 11.3532C53.2716 11.3292 53.3258 11.3171 53.386 11.3171C53.4702 11.3171 53.5365 11.3382 53.5846 11.3803C53.6388 11.4163 53.693 11.4765 53.7471 11.5606L54.5958 12.8862C54.2347 13.1567 53.8284 13.3611 53.3769 13.4994C52.9255 13.6317 52.459 13.6978 51.9775 13.6978Z" fill="#12121D"/>
<path d="M42.645 4.05797C43.3553 4.05797 44.0023 4.16919 44.5862 4.39162C45.17 4.61406 45.6696 4.93268 46.085 5.34749C46.5063 5.76231 46.8313 6.26729 47.0601 6.86246C47.2948 7.45161 47.4122 8.11591 47.4122 8.85536C47.4122 9.60082 47.2948 10.2741 47.0601 10.8753C46.8313 11.4705 46.5063 11.9785 46.085 12.3993C45.6696 12.8141 45.17 13.1357 44.5862 13.3642C44.0023 13.5866 43.3553 13.6978 42.645 13.6978C41.9287 13.6978 41.2756 13.5866 40.6858 13.3642C40.1019 13.1357 39.5963 12.8141 39.1689 12.3993C38.7476 11.9785 38.4195 11.4705 38.1848 10.8753C37.9561 10.2741 37.8417 9.60082 37.8417 8.85536C37.8417 8.11591 37.9561 7.45161 38.1848 6.86246C38.4195 6.26729 38.7476 5.76231 39.1689 5.34749C39.5963 4.93268 40.1019 4.61406 40.6858 4.39162C41.2756 4.16919 41.9287 4.05797 42.645 4.05797ZM42.645 11.6238C43.2891 11.6238 43.7616 11.3983 44.0625 10.9475C44.3695 10.4906 44.523 9.79921 44.523 8.8734C44.523 7.94758 44.3695 7.25924 44.0625 6.80835C43.7616 6.35747 43.2891 6.13203 42.645 6.13203C41.9829 6.13203 41.4983 6.35747 41.1914 6.80835C40.8844 7.25924 40.7309 7.94758 40.7309 8.8734C40.7309 9.79921 40.8844 10.4906 41.1914 10.9475C41.4983 11.3983 41.9829 11.6238 42.645 11.6238Z" fill="#12121D"/>
<path d="M39.2374 2.83151H35.5356V13.5535H32.4839V2.83151H28.7821V0.414773H39.2374V2.83151Z" fill="#12121D"/>
<path d="M23.9348 0.0541275V13.5536H21.1359V0.0541275H23.9348Z" fill="#12121D"/>
<path d="M19.2441 0.0541275V13.5536H16.4452V0.0541275H19.2441Z" fill="#12121D"/>
<path d="M14.4931 4.20223V13.5535H11.6941V4.20223H14.4931ZM14.782 1.64121C14.782 1.86365 14.7368 2.07406 14.6465 2.27245C14.5563 2.46483 14.4329 2.63616 14.2764 2.78646C14.1199 2.93074 13.9363 3.04797 13.7256 3.13815C13.521 3.22231 13.3013 3.26439 13.0665 3.26439C12.8378 3.26439 12.6241 3.22231 12.4255 3.13815C12.2268 3.04797 12.0493 2.93074 11.8928 2.78646C11.7423 2.63616 11.6219 2.46483 11.5316 2.27245C11.4474 2.07406 11.4052 1.86365 11.4052 1.64121C11.4052 1.41277 11.4474 1.19935 11.5316 1.00096C11.6219 0.802571 11.7423 0.62823 11.8928 0.477936C12.0493 0.327642 12.2268 0.210412 12.4255 0.126247C12.6241 0.0420822 12.8378 0 13.0665 0C13.3013 0 13.521 0.0420822 13.7256 0.126247C13.9363 0.210412 14.1199 0.327642 14.2764 0.477936C14.4329 0.62823 14.5563 0.802571 14.6465 1.00096C14.7368 1.19935 14.782 1.41277 14.782 1.64121Z" fill="#12121D"/>
<path d="M5.20056 11.254C5.60385 11.254 5.93189 11.2029 6.1847 11.1007C6.44352 10.9985 6.64516 10.8662 6.78962 10.7039C6.93408 10.5416 7.0334 10.3582 7.08757 10.1538C7.14174 9.94945 7.16883 9.74204 7.16883 9.53163C7.16883 9.29116 7.13572 9.07473 7.06951 8.88236C7.00932 8.68998 6.90098 8.52766 6.74448 8.3954C6.594 8.26314 6.39236 8.16094 6.13955 8.0888C5.88675 8.01666 5.56773 7.98059 5.1825 7.98059H3.05172V11.254H5.20056ZM3.05172 2.69624V5.9426H4.64078C4.97785 5.9426 5.28182 5.91855 5.55268 5.87046C5.82355 5.82236 6.05227 5.7382 6.23887 5.61796C6.43148 5.49773 6.57594 5.3324 6.67225 5.12199C6.77457 4.91158 6.82574 4.64706 6.82574 4.32844C6.82574 4.01583 6.78661 3.75732 6.70836 3.55292C6.63011 3.34251 6.50973 3.17418 6.34721 3.04793C6.1847 2.92168 5.97703 2.83151 5.72423 2.7774C5.47744 2.72329 5.1825 2.69624 4.83941 2.69624H3.05172ZM4.83941 0.414773C5.74831 0.414773 6.52177 0.498938 7.1598 0.667268C7.79783 0.835597 8.31849 1.07306 8.72178 1.37966C9.12506 1.68626 9.41699 2.05899 9.59757 2.49785C9.78416 2.93671 9.87746 3.42667 9.87746 3.96773C9.87746 4.26231 9.83532 4.54787 9.75105 4.82441C9.66678 5.09494 9.53436 5.35044 9.35379 5.59091C9.17321 5.82537 8.94148 6.04179 8.65857 6.24018C8.37567 6.43857 8.03559 6.60991 7.63833 6.75419C8.50509 6.9646 9.14613 7.30427 9.56145 7.77318C9.97677 8.2421 10.1844 8.84929 10.1844 9.59475C10.1844 10.1538 10.0761 10.6739 9.8594 11.1548C9.64271 11.6357 9.32369 12.0566 8.90235 12.4173C8.48703 12.772 7.97239 13.0515 7.35843 13.2559C6.74448 13.4543 6.04325 13.5535 5.25473 13.5535H0V0.414773H4.83941Z" fill="#12121D"/>
</svg>
