<svg width="20" height="20" viewBox="0 0 20 20" fill="none" xmlns="http://www.w3.org/2000/svg">
<path d="M13.6306 8.65779V4.87288C13.6306 4.76456 13.5806 4.66444 13.5098 4.58526L9.26635 0.129258C9.18709 0.0459374 9.07455 0 8.96205 0H2.23421C0.992107 0 0 1.01289 0 2.25507V14.9771C0 16.2193 0.992107 17.2156 2.23418 17.2156H7.54483C8.54932 18.8829 10.3752 20 12.4551 20C15.6147 20 18.195 17.4322 18.195 14.2684C18.1993 11.5048 16.215 9.19553 13.6306 8.65783V8.65779ZM9.37897 1.4632L12.2259 4.46019H10.3793C9.82908 4.46019 9.37893 4.00589 9.37893 3.4557L9.37897 1.4632ZM2.23418 16.3818C1.45476 16.3818 0.833748 15.7565 0.833748 14.9771V2.25507C0.833748 1.4714 1.45476 0.833748 2.23418 0.833748H8.54522V3.45562C8.54522 4.46851 9.36643 5.2939 10.3793 5.2939H12.7969V8.54936C12.6719 8.54522 12.5718 8.53268 12.4635 8.53268C11.0087 8.53268 9.67068 9.09131 8.66194 9.9667H3.36808C3.13874 9.9667 2.95121 10.1542 2.95121 10.3834C2.95121 10.6128 3.1387 10.8003 3.36808 10.8003H7.88662C7.59061 11.2172 7.34463 11.634 7.15303 12.0926H3.36804C3.1387 12.0926 2.95117 12.2801 2.95117 12.5094C2.95117 12.7386 3.13867 12.9263 3.36804 12.9263H6.88198C6.77776 13.3432 6.72358 13.8058 6.72358 14.2685C6.72358 15.0187 6.86944 15.7608 7.13206 16.3861H2.23418V16.3818ZM12.4594 19.1705C9.75826 19.1705 7.56147 16.9737 7.56147 14.2726C7.56147 11.5715 9.75404 9.37467 12.4594 9.37467C15.1646 9.37467 17.3572 11.5715 17.3572 14.2726C17.3572 16.9737 15.1605 19.1705 12.4594 19.1705Z" fill="#109D10"/>
<path d="M3.36805 8.71201H7.59059C7.81992 8.71201 8.00746 8.52435 8.00746 8.29513C8.00746 8.06583 7.81996 7.8783 7.59059 7.8783H3.36805C3.13871 7.8783 2.95117 8.0658 2.95117 8.29513C2.95117 8.52435 3.13867 8.71201 3.36805 8.71201ZM14.5935 14.1851L12.8804 16.0317V11.4798C12.8804 11.2505 12.6927 11.0629 12.4635 11.0629C12.2342 11.0629 12.0466 11.2504 12.0466 11.4798V16.0317L10.3209 14.1851C10.1625 14.0184 9.89574 14.0059 9.72898 14.1643C9.56219 14.3227 9.54969 14.5853 9.7082 14.752L12.1467 17.374C12.2259 17.4573 12.3342 17.5073 12.451 17.5073C12.5677 17.5073 12.676 17.4573 12.7552 17.374L15.198 14.7521C15.3564 14.5853 15.348 14.3186 15.1812 14.1643C15.0104 14.0059 14.752 14.0184 14.5935 14.1851Z" fill="#109D10"/>
</svg>
