<svg width="24" height="24" viewBox="0 0 24 24" fill="none" xmlns="http://www.w3.org/2000/svg">
<path d="M20.2422 6.6875H17.8578C18.2264 6.1975 18.4453 5.58871 18.4453 4.92969C18.4453 3.31426 17.1311 2 15.5156 2C14.5425 2 13.825 2.34863 13.2575 3.09715C12.7827 3.7234 12.4355 4.59777 12 5.70254C11.5645 4.59773 11.2173 3.7234 10.7425 3.09715C10.175 2.34863 9.45746 2 8.48438 2C6.86895 2 5.55469 3.31426 5.55469 4.92969C5.55469 5.58871 5.77355 6.1975 6.14223 6.6875H3.75781C2.78855 6.6875 2 7.47605 2 8.44531V9.61719C2 10.3811 2.48988 11.0323 3.17188 11.2742V20.2422C3.17188 21.2114 3.96043 22 4.92969 22H19.0703C20.0396 22 20.8281 21.2114 20.8281 20.2422V11.2742C21.5101 11.0323 22 10.3811 22 9.61719V8.44531C22 7.47605 21.2114 6.6875 20.2422 6.6875ZM13.0755 6.16953C13.9732 3.89227 14.3144 3.17188 15.5156 3.17188C16.4849 3.17188 17.2734 3.96043 17.2734 4.92969C17.2734 5.89895 16.4849 6.6875 15.5156 6.6875H12.8706C12.9424 6.50723 13.0109 6.33367 13.0755 6.16953ZM8.48438 3.17188C9.68559 3.17188 10.0268 3.89227 10.9245 6.16953C10.9891 6.33367 11.0576 6.50723 11.1294 6.6875H8.48438C7.51512 6.6875 6.72656 5.89895 6.72656 4.92969C6.72656 3.96043 7.51512 3.17188 8.48438 3.17188ZM9.65625 20.8281H4.92969C4.6066 20.8281 4.34375 20.5653 4.34375 20.2422V11.375H9.65625V20.8281ZM9.65625 10.2031H3.75781C3.43473 10.2031 3.17188 9.94027 3.17188 9.61719V8.44531C3.17188 8.12223 3.43473 7.85938 3.75781 7.85938H9.65625V10.2031ZM13.1719 20.8281H10.8281V7.85938H13.1719V20.8281ZM19.6562 20.2422C19.6562 20.5653 19.3934 20.8281 19.0703 20.8281H14.3438V11.375H19.6562V20.2422ZM20.8281 9.61719C20.8281 9.94027 20.5653 10.2031 20.2422 10.2031H14.3438V7.85938H20.2422C20.5653 7.85938 20.8281 8.12223 20.8281 8.44531V9.61719Z" fill="black"/>
</svg>
