<svg width="12" height="12" viewBox="0 0 12 12" fill="none" xmlns="http://www.w3.org/2000/svg">
<path fill-rule="evenodd" clip-rule="evenodd" d="M6.27013 9.60037C6.10486 9.49704 5.89513 9.49704 5.72987 9.60037L2.87718 11.384C2.48851 11.627 2.00167 11.2733 2.11268 10.8285L2.92747 7.5643C2.97467 7.3752 2.90986 7.17573 2.76052 7.05049L0.18267 4.88859C-0.168549 4.59404 0.0174097 4.02172 0.474683 3.98987L3.83094 3.75607C4.02538 3.74253 4.19505 3.61925 4.26802 3.43851L5.52751 0.318767C5.69911 -0.106283 6.30089 -0.106282 6.47249 0.318768L7.73198 3.43852C7.80495 3.61925 7.97462 3.74253 8.16906 3.75607L11.5253 3.98987C11.9826 4.02172 12.1685 4.59404 11.8173 4.88859L9.23948 7.05049C9.09014 7.17574 9.02533 7.3752 9.07253 7.56431L9.88732 10.8285C9.99833 11.2733 9.51149 11.627 9.12282 11.384L6.27013 9.60037Z" fill="white"/>
</svg>
