<svg width="15" height="18" viewBox="0 0 15 18" fill="none" xmlns="http://www.w3.org/2000/svg">
<path d="M1.98984 0.76533C1.82895 0.76531 1.66964 0.792973 1.52099 0.846738C1.37235 0.900503 1.23729 0.979318 1.12352 1.07868C1.00988 1.17798 0.91975 1.29587 0.858288 1.4256C0.796826 1.55534 0.765236 1.69438 0.765322 1.83478V16.0763C0.765322 16.48 1.1388 16.8072 1.60104 16.8072H1.60412C1.72646 16.8073 1.84759 16.7862 1.96054 16.7452C2.07349 16.7041 2.17604 16.644 2.26226 16.5682C3.07348 15.8602 5.46737 13.7694 6.45617 12.9075C6.73168 12.6655 7.10817 12.5294 7.50006 12.5294C7.89191 12.5294 8.26844 12.6655 8.54391 12.9075C9.53575 13.7721 11.9419 15.8731 12.7439 16.5746C12.9154 16.7236 13.1449 16.8072 13.3868 16.8072C13.8552 16.8072 14.2348 16.4759 14.2348 16.0672V1.83478C14.2349 1.69431 14.2032 1.5552 14.1417 1.42541C14.0802 1.29562 13.99 1.17769 13.8763 1.07837C13.7626 0.979042 13.6276 0.900271 13.4789 0.846558C13.3303 0.792845 13.1711 0.765242 13.0102 0.76533H1.98984Z" stroke="black" stroke-width="1.5" stroke-miterlimit="10" stroke-linecap="round" stroke-linejoin="round"/>
</svg>
