<svg width="20" height="20" viewBox="0 0 20 20" fill="none" xmlns="http://www.w3.org/2000/svg">
<path d="M12.167 7.99996L11.2503 8.91663V5.83329C11.2503 5.58329 11.0837 5.41663 10.8337 5.41663C10.5837 5.41663 10.417 5.58329 10.417 5.83329V8.99996L9.50033 8.08329C9.33366 7.91663 9.08366 7.91663 8.91699 8.08329C8.75033 8.24996 8.75033 8.49996 8.91699 8.66663L10.5837 10.3333C10.5837 10.3333 10.667 10.4166 10.7503 10.4166H11.0837C11.167 10.4166 11.167 10.3333 11.2503 10.3333L12.917 8.66663C13.0837 8.49996 13.0837 8.24996 12.917 8.08329C12.7503 7.91663 12.3337 7.91663 12.167 7.99996Z" fill="#109D10"/>
<path d="M16.6668 2.08331H5.00016C4.3335 2.08331 3.75016 2.66665 3.75016 3.33331V12.9166H2.50016C2.25016 12.9166 2.0835 13.0833 2.0835 13.3333V15.4166C2.0835 16.8333 3.16683 17.9166 4.5835 17.9166H15.4168C16.8335 17.9166 17.9168 16.8333 17.9168 15.4166V3.33331C17.9168 2.66665 17.3335 2.08331 16.6668 2.08331ZM4.5835 17.0833C3.66683 17.0833 2.91683 16.3333 2.91683 15.4166V13.75H12.9168V15.4166C12.9168 16.0833 13.1668 16.6666 13.5835 17.0833H4.5835ZM17.0835 15.4166C17.0835 16.3333 16.3335 17.0833 15.4168 17.0833C14.5002 17.0833 13.7502 16.3333 13.7502 15.4166V13.3333C13.7502 13.0833 13.5835 12.9166 13.3335 12.9166H4.5835V3.33331C4.5835 3.08331 4.75016 2.91665 5.00016 2.91665H16.6668C16.9168 2.91665 17.0835 3.08331 17.0835 3.33331V15.4166Z" fill="#109D10"/>
</svg>
