<svg width="24" height="24" viewBox="0 0 24 24" fill="none" xmlns="http://www.w3.org/2000/svg">
<path d="M6.59991 3.00037C6.44224 3.00035 6.28611 3.03139 6.14045 3.09172C5.99478 3.15204 5.86242 3.24048 5.75093 3.35197C5.63956 3.46339 5.55124 3.59566 5.49101 3.74123C5.43078 3.88679 5.39982 4.0428 5.3999 4.20034V20.1799C5.3999 20.6329 5.76591 21.0001 6.21889 21.0001H6.22191C6.34179 21.0001 6.4605 20.9764 6.57119 20.9304C6.68189 20.8844 6.78238 20.8169 6.86688 20.7319C7.66185 19.9375 10.0078 17.5915 10.9768 16.6243C11.2468 16.3529 11.6158 16.2002 11.9998 16.2002C12.3838 16.2002 12.7528 16.3529 13.0228 16.6243C13.9948 17.5945 16.3527 19.9519 17.1387 20.7391C17.3067 20.9062 17.5317 21.0001 17.7687 21.0001C18.2277 21.0001 18.5997 20.6283 18.5997 20.1697V4.20034C18.5998 4.04273 18.5688 3.88665 18.5085 3.74101C18.4483 3.59538 18.3599 3.46306 18.2484 3.35162C18.137 3.24017 18.0046 3.15178 17.859 3.09152C17.7134 3.03125 17.5573 3.00028 17.3997 3.00037H6.59991Z" stroke="black" stroke-width="1.5" stroke-miterlimit="10" stroke-linecap="round" stroke-linejoin="round"/>
</svg>
