<svg width="24" height="24" viewBox="0 0 24 24" fill="none" xmlns="http://www.w3.org/2000/svg">
<path d="M21.315 9.70352L21.2992 9.68927L13.5262 2.51402C13.1096 2.13239 12.565 1.92072 12 1.92072C11.435 1.92072 10.8904 2.13239 10.4737 2.51402L2.70075 9.68927L2.685 9.70352L1.11525 11.1525C1.03962 11.2184 0.977973 11.2988 0.933962 11.3889C0.88995 11.4791 0.864466 11.5771 0.859018 11.6773C0.853569 11.7774 0.868266 11.8777 0.90224 11.972C0.936213 12.0664 0.988772 12.153 1.05681 12.2267C1.12484 12.3004 1.20697 12.3597 1.29833 12.4011C1.38969 12.4425 1.48843 12.4652 1.58871 12.4678C1.68898 12.4703 1.78875 12.4528 1.88211 12.4161C1.97547 12.3794 2.06053 12.3244 2.13225 12.2543L2.46975 11.9423V19.7813C2.46975 21.0218 3.47925 22.0313 4.71975 22.0313H19.2795C20.52 22.0313 21.5295 21.0218 21.5295 19.7813V11.9423L21.867 12.2543C21.9392 12.3214 22.0239 12.3736 22.1163 12.4079C22.2087 12.4422 22.307 12.4579 22.4054 12.454C22.5039 12.4502 22.6007 12.4269 22.6902 12.3856C22.7796 12.3442 22.86 12.2856 22.9267 12.213C23.0616 12.0668 23.1329 11.873 23.1248 11.6743C23.1168 11.4756 23.0302 11.2881 22.884 11.1533L21.315 9.70352ZM9.951 20.5313V14.3903H14.0497V20.5313H9.951ZM20.0302 19.7813C20.0302 20.1953 19.6935 20.5313 19.2802 20.5313H15.5497V14.3903C15.5497 13.563 14.877 12.8903 14.0497 12.8903H9.951C9.12375 12.8903 8.451 13.563 8.451 14.3903V20.5313H4.71975C4.3065 20.5313 3.96975 20.1953 3.96975 19.7813V10.5578L11.4915 3.61502C11.7765 3.35177 12.2227 3.35027 12.5085 3.61502L20.0295 10.5578V19.7813H20.0302Z" fill="black"/>
</svg>
