<svg width="15" height="15" viewBox="0 0 15 15" fill="none" xmlns="http://www.w3.org/2000/svg">
<path d="M1.23102 5.85626L12.6233 0.61907C13.9682 0 15 0.974858 14.3809 2.31973L9.15797 13.6622C8.57448 14.9288 6.85247 14.6727 6.84535 13.3065L6.83824 8.21869C6.83824 8.14042 6.83824 8.14753 6.76708 8.14753L1.65085 8.12619C0.313093 8.12619 0 6.42552 1.23102 5.85626ZM3.39421 6.60342L7.59962 6.58207C8.14042 6.57495 8.38947 6.824 8.38947 7.35769L8.36101 11.5773C8.36101 11.6058 8.38947 11.6129 8.4037 11.5844L12.5878 2.4407C12.6233 2.37666 12.5878 2.36243 12.5451 2.38378L3.3871 6.56072C3.35152 6.57495 3.35863 6.60342 3.39421 6.60342Z" fill="black"/>
</svg>
