<svg width="28" height="14" viewBox="0 0 28 14" fill="none" xmlns="http://www.w3.org/2000/svg">
<path opacity="0.4" fill-rule="evenodd" clip-rule="evenodd" d="M12.0405 13.3527H12.0407L12.8726 12.3406H12.8724L12.0405 13.3527ZM14.6151 12.3406L13.7831 13.3527H18.825C21.0924 13.3527 22.226 13.3527 23.092 12.9115C23.8538 12.5234 24.4731 11.904 24.8612 11.1423C25.3025 10.2763 25.3025 9.14262 25.3025 6.8753V6.67288C25.3025 4.40557 25.3025 3.27191 24.8612 2.40591C24.4731 1.64416 23.8538 1.02483 23.092 0.6367C22.226 0.195452 21.0924 0.195452 18.825 0.195452H16.8819C16.9332 0.532992 16.8977 0.884477 16.7861 1.20755H18.825C19.9754 1.20755 20.7773 1.20834 21.4016 1.25935C22.0141 1.30939 22.366 1.40268 22.6325 1.53849C23.2038 1.82959 23.6683 2.29408 23.9594 2.8654C24.0952 3.13194 24.1885 3.48383 24.2386 4.09632C24.2896 4.72063 24.2904 5.52253 24.2904 6.67288V6.8753C24.2904 8.02566 24.2896 8.82756 24.2386 9.45186C24.1885 10.0644 24.0952 10.4162 23.9594 10.6828C23.6683 11.2541 23.2038 11.7186 22.6325 12.0097C22.366 12.1455 22.0141 12.2388 21.4016 12.2888C20.7773 12.3399 19.9754 12.3406 18.825 12.3406H14.6151ZM15.3481 1.20755L15.5057 0.790562C15.551 0.670602 15.5675 0.560067 15.5611 0.462044C15.5674 0.560011 15.551 0.670469 15.5057 0.790337L15.348 1.20755H15.3481ZM9.69201 12.3406H6.47743C5.32707 12.3406 4.52518 12.3399 3.90087 12.2888C3.28838 12.2388 2.93649 12.1455 2.66995 12.0097C2.09863 11.7186 1.63414 11.2541 1.34304 10.6828C1.20723 10.4162 1.11394 10.0644 1.06389 9.45186C1.01289 8.82756 1.0121 8.02566 1.0121 6.8753V6.67288C1.0121 5.52253 1.01289 4.72063 1.06389 4.09632C1.11394 3.48383 1.20723 3.13194 1.34304 2.8654C1.63414 2.29408 2.09863 1.82959 2.66995 1.53849C2.93649 1.40268 3.28838 1.30939 3.90087 1.25935C4.52518 1.20834 5.32708 1.20755 6.47743 1.20755H12.0598L12.8909 0.195452H6.47743C4.21012 0.195452 3.07646 0.195452 2.21046 0.6367C1.44871 1.02483 0.829382 1.64416 0.441249 2.40591C0 3.27191 0 4.40557 0 6.67288V6.8753C0 9.14262 0 10.2763 0.441249 11.1423C0.829382 11.904 1.44871 12.5234 2.21046 12.9115C3.07646 13.3527 4.21012 13.3527 6.47743 13.3527H9.40717C9.4223 13.1393 9.46923 12.9283 9.54469 12.7304L9.54607 12.7267L9.69201 12.3406Z" fill="black"/>
<path opacity="0.5" d="M26.3146 4.7499V8.79829C27.1302 8.45542 27.6607 7.65779 27.6607 6.77409C27.6607 5.8904 27.1302 5.09277 26.3146 4.7499Z" fill="black"/>
<path fill-rule="evenodd" clip-rule="evenodd" d="M12.6768 8.25084L12.6769 8.25061H9.08912C8.80992 8.25061 8.60737 8.06447 8.59193 7.80791C8.60726 8.06458 8.80985 8.25084 9.08914 8.25084H12.6768ZM10.0746 11.3285H5.26291C4.12926 11.3285 3.56243 11.3285 3.12943 11.1079C2.74855 10.9138 2.43889 10.6042 2.24482 10.2233C2.0242 9.79031 2.0242 9.22348 2.0242 8.08982V5.45837C2.0242 4.32471 2.0242 3.75788 2.24482 3.32488C2.43889 2.944 2.74855 2.63434 3.12943 2.44027C3.56243 2.21965 4.12926 2.21965 5.26291 2.21965H11.2287L7.72511 6.48628C7.44446 6.82476 7.2449 7.25557 7.2449 7.77642C7.2449 8.84651 8.11017 9.59693 9.08914 9.59693H10.7291L10.0746 11.3285Z" fill="#34C759"/>
<path d="M8.59098 7.77619C8.59098 8.04898 8.79854 8.25061 9.08912 8.25061H12.6769L10.803 13.2083C10.5302 13.9199 11.2655 14.2936 11.74 13.7183L17.5457 6.65537C17.6584 6.51304 17.7177 6.37665 17.7177 6.22246C17.7177 5.94967 17.5042 5.74804 17.2195 5.74804H13.6317L15.5057 0.790337C15.7725 0.0846352 15.0372 -0.294902 14.5628 0.280334L8.76296 7.34328C8.64435 7.48561 8.59098 7.622 8.59098 7.77619Z" fill="black"/>
</svg>
