<svg width="24" height="24" viewBox="0 0 24 24" fill="none" xmlns="http://www.w3.org/2000/svg">
<path d="M21.0002 20.0034L20.1665 8.80481C20.1281 8.28838 19.8967 7.80532 19.5185 7.45164C19.1402 7.09796 18.6427 6.89955 18.1248 6.89586H17.0462C16.7637 4.02731 14.5962 1.79169 11.9998 1.79169C9.40353 1.79169 7.23596 4.02731 6.9263 6.89586H5.87485C5.35754 6.89949 4.8605 7.09742 4.48232 7.45039C4.10413 7.80336 3.87243 8.28559 3.83318 8.80141L2.9995 20C2.9764 20.2818 3.0121 20.5653 3.10431 20.8326C3.19652 21.0998 3.34324 21.3451 3.53518 21.5527C3.72712 21.7603 3.96009 21.9258 4.21933 22.0386C4.47857 22.1515 4.75842 22.2093 5.04116 22.2084H18.9483C19.2308 22.2093 19.5103 22.1516 19.7693 22.0389C20.0283 21.9262 20.2611 21.7611 20.453 21.5538C20.6448 21.3466 20.7917 21.1018 20.8841 20.8349C20.9765 20.568 21.0126 20.2849 20.99 20.0034H21.0002ZM11.9998 3.1528C13.8646 3.1528 15.4026 4.78273 15.6885 6.89586H8.29762C8.57665 4.78273 10.1215 3.1528 11.9998 3.1528ZM19.486 20.6261C19.4213 20.6968 19.3423 20.7531 19.2544 20.7912C19.1664 20.8293 19.0714 20.8484 18.9755 20.8472H5.05137C4.95629 20.8477 4.86217 20.8282 4.77509 20.79C4.688 20.7518 4.60988 20.6958 4.54576 20.6256C4.48164 20.5554 4.43295 20.4726 4.40282 20.3824C4.37268 20.2922 4.36178 20.1967 4.37082 20.102L5.19429 8.9035C5.20303 8.72896 5.27857 8.56448 5.40526 8.44412C5.53196 8.32376 5.70009 8.25675 5.87485 8.25697H6.89568V9.82225C6.89568 10.0027 6.96738 10.1758 7.09501 10.3035C7.22264 10.4311 7.39574 10.5028 7.57623 10.5028C7.75673 10.5028 7.92983 10.4311 8.05746 10.3035C8.18509 10.1758 8.25679 10.0027 8.25679 9.82225V8.25697H15.7429V9.82225C15.7429 10.0027 15.8146 10.1758 15.9422 10.3035C16.0699 10.4311 16.243 10.5028 16.4235 10.5028C16.604 10.5028 16.7771 10.4311 16.9047 10.3035C17.0323 10.1758 17.104 10.0027 17.104 9.82225V8.25697H18.1248C18.299 8.2567 18.4667 8.32324 18.5933 8.44289C18.7199 8.56253 18.7958 8.72616 18.8054 8.90009L19.6255 20.0986C19.6362 20.1933 19.6268 20.2892 19.5981 20.3801C19.5694 20.4709 19.5219 20.5547 19.4587 20.6261H19.486Z" fill="#109D10"/>
</svg>
