<svg width="69" height="70" viewBox="0 0 69 70" fill="none" xmlns="http://www.w3.org/2000/svg">
<path d="M34.5 69C53.0159 69 68 53.7632 68 35C68 16.2368 53.0159 1 34.5 1C15.9841 1 1 16.2368 1 35C1 53.7632 15.9841 69 34.5 69Z" stroke="#109D10" stroke-width="2"/>
<path d="M34.5001 65C50.8593 65 64.0973 51.5553 64.0973 35C64.0973 18.4447 50.8593 5 34.5001 5C18.1408 5 4.90283 18.4447 4.90283 35C4.90283 51.5553 18.1408 65 34.5001 65Z" stroke="#109D10" stroke-width="2"/>
<mask id="mask0_298_1157" style="mask-type:alpha" maskUnits="userSpaceOnUse" x="5" y="6" width="59" height="58">
<ellipse cx="34.5001" cy="35" rx="28.5972" ry="29" fill="#D9D9D9"/>
</mask>
<g mask="url(#mask0_298_1157)">
<path d="M34.5884 18.8889C28.0297 18.8889 22.6938 24.2248 22.6938 30.7834C22.6938 37.3421 28.0297 42.678 34.5884 42.678C41.147 42.678 46.4829 37.3421 46.4829 30.7834C46.4829 24.2248 41.147 18.8889 34.5884 18.8889ZM49.3875 50.4486C46.131 47.1421 41.814 45.3212 37.2316 45.3212H31.9452C27.3628 45.3212 23.0457 47.1421 19.7893 50.4486C16.5488 53.7389 14.7642 58.0821 14.7642 62.6784C14.7642 63.4083 15.3559 64 16.0858 64H53.091C53.8209 64 54.4126 63.4083 54.4126 62.6784C54.4126 58.0821 52.628 53.7389 49.3875 50.4486Z" fill="#109D10"/>
</g>
</svg>
